<svg width="68" height="28" viewBox="0 0 68 28" fill="#fff" xmlns="http://www.w3.org/2000/svg">
<path fill-rule="evenodd" clip-rule="evenodd" d="M2.06644 1.21588C1.11876 1.21588 0.350521 1.98412 0.350521 2.9318V14.2457C0.350521 15.1934 1.11876 15.9617 2.06644 15.9617H7.23536C8.18303 15.9617 8.95128 15.1934 8.95128 14.2457V2.9318C8.95128 1.98413 8.18303 1.21588 7.23536 1.21588H2.06644ZM4.65093 26.7841C7.21958 26.7841 9.30187 24.7018 9.30187 22.1332C9.30187 19.5646 7.21958 17.4823 4.65093 17.4823C2.08229 17.4823 0 19.5646 0 22.1332C0 24.7018 2.08229 26.7841 4.65093 26.7841ZM17.4843 17.8328C18.4319 17.8328 19.2002 18.601 19.2002 19.5487V24.7176C19.2002 25.6653 18.4319 26.4335 17.4842 26.4335H12.7129C11.7652 26.4335 10.997 25.6653 10.997 24.7176V19.5487C10.997 18.601 11.7652 17.8328 12.7129 17.8328H17.4843ZM29.7444 6.86396V22.2558H27.2683V6.86396H29.7444ZM34.58 8.04623C34.58 8.84928 33.9777 9.45157 33.1523 9.45157C32.327 9.45157 31.7247 8.84928 31.7247 8.04623C31.7247 7.22087 32.327 6.61858 33.1523 6.61858C33.9777 6.61858 34.58 7.22087 34.58 8.04623ZM34.3792 11.1915V22.2558H31.9031V11.1915H34.3792ZM47.3345 22.1665C47.3345 25.2672 45.3715 26.6279 42.7616 26.6279H37.3633V24.3972H42.8285C44.1669 24.3972 44.9254 23.7726 44.9254 22.2781V20.6497C44.0777 21.6312 42.7839 22.1888 41.3339 22.1888C38.0994 22.1888 35.7572 19.7351 35.7572 16.5675C35.7572 13.4222 38.2779 10.9684 41.3562 10.9684C42.8062 10.9684 44.1223 11.5038 44.97 12.5522V11.1915H47.3345V22.1665ZM38.2333 16.5675C38.2333 18.4859 39.6163 19.8912 41.5347 19.8912C43.4531 19.8912 44.8584 18.4859 44.8584 16.5675C44.8584 14.6491 43.4531 13.2438 41.5347 13.2438C39.6163 13.2438 38.2333 14.6491 38.2333 16.5675ZM51.9704 16.1883V22.2558H49.4943V6.86396H51.9704V12.3069C52.6619 11.4592 53.7326 10.9684 55.0933 10.9684C57.8371 10.9684 59.7778 12.9091 59.7778 15.9652V22.2558H57.3017V16.1883C57.3017 14.3814 56.3202 13.3107 54.7141 13.3107C53.0634 13.3107 51.9704 14.426 51.9704 16.1883ZM68 19.9358V22.2558H66.3047C63.784 22.2558 62.5794 21.1627 62.5794 18.8651V13.4668H60.7502V11.1915H62.0217C62.3563 11.1915 62.5794 10.9684 62.5794 10.5669V8.42544H65.0555V11.1915H68V13.4668H65.0555V18.6197C65.0555 19.4897 65.4793 19.9358 66.4831 19.9358H68Z" />
</svg>
